<svg xmlns="http://www.w3.org/2000/svg" xmlns:xlink="http://www.w3.org/1999/xlink" viewBox="0 0 471.76 672.53"><defs><style>.cls-1{fill:gold;}.cls-2{fill:url(#linear-gradient);}.cls-3{fill:url(#linear-gradient-3);}.cls-4{fill:#00c702;}</style><linearGradient id="linear-gradient" x1="240.92" y1="-5.16" x2="240.92" y2="747.75" gradientUnits="userSpaceOnUse"><stop offset="0" stop-color="#ffe500"/><stop offset="1" stop-color="#ffc300"/></linearGradient><linearGradient id="linear-gradient-3" x1="257.21" y1="162.63" x2="257.21" y2="352.56" gradientUnits="userSpaceOnUse"><stop offset="0" stop-color="#00c702"/><stop offset="1" stop-color="#009c0b"/></linearGradient></defs><g id="Layer_2" data-name="Layer 2"><g id="Layer_1-2" data-name="Layer 1"><path class="cls-1" d="M465.56,202.06c3.32-4.95,2.74-7.49-1.27-11.54Q403.83,129.44,343.74,68c-18.09-18.43-36.1-36.95-54.3-55.27C271.44-5.4,256.31-4.11,242,16.27c-17.29,24.58-33.34,50-49.53,75.26q-9.87,15.41-19.7,30.83c56-44,125.67-42.17,175.84-6.36,24.56,17.53,42.2,40.59,51.92,69.27,14.54,42.91,9.17,83.9-13.58,122.9,15.33,3.62,24.08,13.54,24.24,26.86.15,12.72-8.17,23.38-20.85,26.69-13.35,3.5-24.05-2.7-33.39-19.57-2.47,1.83-4.88,3.66-7.34,5.42-34.34,24.5-72.46,33.06-113.51,24.15C142.58,351.43,96,249.66,139.75,164.63c20-38.74,37.82-78.56,56.75-117.83,1.49-3.08,1.09-5-1.27-7.32C188.75,33,182.7,26.11,176.15,19.72,161.37,5.31,149.51,5.57,135,20.37a36.77,36.77,0,0,0-4.36,5.49Q73.62,112.59,16.52,199.29c-3.25,4.91-3.42,7.76.82,12.32,47.94,51.61,95.49,103.58,143.44,155.17,15,16.16,28.74,33.6,45.71,47.83,33.36,27.95,91.93,31.32,125.16-11.28a361.79,361.79,0,0,0,22.19-32.55c2.57-4.14,4.46-4.62,8.67-1.92,18.88,12.12,42.89,7,55.09-11.43a39.52,39.52,0,0,0-10.68-54.77c-5-3.41-4.42-5.4-1.6-9.64C425.49,262.76,445.28,232.24,465.56,202.06Z" transform="translate(-9.12)"/><path class="cls-1" d="M381.81,201.11c-13.08-42.84-41.84-70.41-84.2-83.68-50.8-15.91-103.4,1.18-132.08,32.26C244,92.17,350.06,124.1,381.81,201.11Z" transform="translate(-9.12)"/><path class="cls-2" d="M465.56,202.06c3.32-4.95,2.74-7.49-1.27-11.54Q403.83,129.44,343.74,68c-18.09-18.43-36.1-36.95-54.3-55.27C271.44-5.4,256.31-4.11,242,16.27c-17.29,24.58-33.34,50-49.53,75.26q-9.87,15.41-19.7,30.83c56-44,125.67-42.17,175.84-6.36,24.56,17.53,42.2,40.59,51.92,69.27,14.54,42.91,9.17,83.9-13.58,122.9,15.33,3.62,24.08,13.54,24.24,26.86.15,12.72-8.17,23.38-20.85,26.69-13.35,3.5-24.05-2.7-33.39-19.57-2.47,1.83-4.88,3.66-7.34,5.42-34.34,24.5-72.46,33.06-113.51,24.15C142.58,351.43,96,249.66,139.75,164.63c20-38.74,37.82-78.56,56.75-117.83,1.49-3.08,1.09-5-1.27-7.32C188.75,33,182.7,26.11,176.15,19.72,161.37,5.31,149.51,5.57,135,20.37a36.77,36.77,0,0,0-4.36,5.49Q73.62,112.59,16.52,199.29c-3.25,4.91-3.42,7.76.82,12.32,47.94,51.61,95.49,103.58,143.44,155.17,15,16.16,28.74,33.6,45.71,47.83,33.36,27.95,91.93,31.32,125.16-11.28a361.79,361.79,0,0,0,22.19-32.55c2.57-4.14,4.46-4.62,8.67-1.92,18.88,12.12,42.89,7,55.09-11.43a39.52,39.52,0,0,0-10.68-54.77c-5-3.41-4.42-5.4-1.6-9.64C425.49,262.76,445.28,232.24,465.56,202.06Z" transform="translate(-9.12)"/><path class="cls-2" d="M381.81,201.11c-13.08-42.84-41.84-70.41-84.2-83.68-50.8-15.91-103.4,1.18-132.08,32.26C244,92.17,350.06,124.1,381.81,201.11Z" transform="translate(-9.12)"/><path class="cls-1" d="M299.11,300.39c8.67-.3,17.36-.26,26,0,4.1.11,5.81-.93,5.79-5.42q-.24-55.93,0-111.88c0-4.62-1.86-5.43-5.87-5.32-8.43.24-16.9.38-25.32,0-5.25-.26-6.14,1.88-6.09,6.52.23,18.3.1,36.59.09,54.89,0,18.52.11,37.05-.08,55.58C293.6,298.9,294.68,300.55,299.11,300.39Z" transform="translate(-9.12)"/><path class="cls-1" d="M269.63,199.31c-8.43.25-16.89.27-25.32,0-4.56-.15-6.05,1.31-6,6,.28,15,.1,30,.1,45h0c0,14.77.12,29.54-.08,44.31-.05,4.05.76,5.93,5.37,5.75,8.66-.35,17.35-.3,26,0,4.57.18,6.12-1.24,6.09-5.88q-.22-44.67,0-89.33C275.91,200.41,274.05,199.17,269.63,199.31Z" transform="translate(-9.12)"/><path class="cls-1" d="M188.93,300.37c8.43-.2,16.88-.33,25.3,0,4.79.22,6.56-1,6.37-6.11-.4-10.3-.12-20.62-.12-30.92,0-10.55-.18-21.09.09-31.63.12-4.92-1.68-6.6-6.54-6.43-8.42.31-16.87.22-25.3,0-4-.08-5.24,1.42-5.21,5.36q.21,32.33,0,64.65C183.46,299.61,185.2,300.46,188.93,300.37Z" transform="translate(-9.12)"/><path class="cls-3" d="M299.11,300.39c8.67-.3,17.36-.26,26,0,4.1.11,5.81-.93,5.79-5.42q-.24-55.93,0-111.88c0-4.62-1.86-5.43-5.87-5.32-8.43.24-16.9.38-25.32,0-5.25-.26-6.14,1.88-6.09,6.52.23,18.3.1,36.59.09,54.89,0,18.52.11,37.05-.08,55.58C293.6,298.9,294.68,300.55,299.11,300.39Z" transform="translate(-9.12)"/><path class="cls-3" d="M269.63,199.31c-8.43.25-16.89.27-25.32,0-4.56-.15-6.05,1.31-6,6,.28,15,.1,30,.1,45h0c0,14.77.12,29.54-.08,44.31-.05,4.05.76,5.93,5.37,5.75,8.66-.35,17.35-.3,26,0,4.57.18,6.12-1.24,6.09-5.88q-.22-44.67,0-89.33C275.91,200.41,274.05,199.17,269.63,199.31Z" transform="translate(-9.12)"/><path class="cls-3" d="M188.93,300.37c8.43-.2,16.88-.33,25.3,0,4.79.22,6.56-1,6.37-6.11-.4-10.3-.12-20.62-.12-30.92,0-10.55-.18-21.09.09-31.63.12-4.92-1.68-6.6-6.54-6.43-8.42.31-16.87.22-25.3,0-4-.08-5.24,1.42-5.21,5.36q.21,32.33,0,64.65C183.46,299.61,185.2,300.46,188.93,300.37Z" transform="translate(-9.12)"/><path class="cls-4" d="M9.12,575.73v-56H15v56Zm5.12-13.92-.24-7.2,33.92-34.88h6.8L30,545.65l-3.36,3.6Zm35.12,13.92L25.2,547.89l4-4.32,27.2,32.16Z" transform="translate(-9.12)"/><path class="cls-4" d="M71.92,570.61H105.6v5.12H66v-56h38.4v5.12H71.92Zm-.64-25.84h29.6v5H71.28Z" transform="translate(-9.12)"/><path class="cls-4" d="M119.52,575.73v-56h5.92v50.88H156.8v5.12Z" transform="translate(-9.12)"/><path class="cls-4" d="M190,576.21a31.87,31.87,0,0,1-11.72-2.12,27.54,27.54,0,0,1-9.36-6,27.87,27.87,0,0,1-6.16-9,30.22,30.22,0,0,1,0-22.64,27.67,27.67,0,0,1,15.48-15,33.46,33.46,0,0,1,23.44,0,28.18,28.18,0,0,1,9.32,6,27.34,27.34,0,0,1,6.16,9,30.43,30.43,0,0,1,0,22.72,27.24,27.24,0,0,1-6.16,9,28,28,0,0,1-9.32,6A31.58,31.58,0,0,1,190,576.21Zm0-5.28a24.69,24.69,0,0,0,9.32-1.72,21.91,21.91,0,0,0,7.44-4.88,22.54,22.54,0,0,0,4.92-7.36,25.13,25.13,0,0,0,0-18.48,22.64,22.64,0,0,0-4.92-7.36,22.21,22.21,0,0,0-7.44-4.88,24.88,24.88,0,0,0-9.32-1.72,25.21,25.21,0,0,0-9.36,1.72,22.33,22.33,0,0,0-12.48,12.24,25,25,0,0,0,0,18.44,22.23,22.23,0,0,0,12.48,12.28A25,25,0,0,0,190,570.93Z" transform="translate(-9.12)"/><path class="cls-4" d="M232.64,575.73v-56h4.88l25.6,43.68h-2.56l25.36-43.68h4.88v56h-5.68V528.61h1.36l-23.36,40h-2.8l-23.52-40h1.52v47.12Z" transform="translate(-9.12)"/><path class="cls-4" d="M309,575.73v-56h21A30,30,0,0,1,342.24,522a17.66,17.66,0,0,1,7.88,6.56,18.71,18.71,0,0,1,2.76,10.36,18.39,18.39,0,0,1-2.76,10.2,17.8,17.8,0,0,1-7.88,6.6A29.48,29.48,0,0,1,330,558.05H312.32l2.64-2.8v20.48Zm5.92-20-2.64-2.88h17.52q8.4,0,12.76-3.64T347,538.93q0-6.72-4.36-10.4t-12.76-3.68H312.32l2.64-2.8Z" transform="translate(-9.12)"/><path class="cls-4" d="M391,576.21a31.83,31.83,0,0,1-11.72-2.12,27.58,27.58,0,0,1-15.52-15,30.22,30.22,0,0,1,0-22.64,27.67,27.67,0,0,1,15.48-15,33.46,33.46,0,0,1,23.44,0,28.18,28.18,0,0,1,9.32,6,27.34,27.34,0,0,1,6.16,9,30.43,30.43,0,0,1,0,22.72,27.24,27.24,0,0,1-6.16,9,28,28,0,0,1-9.32,6A31.58,31.58,0,0,1,391,576.21Zm0-5.28a24.73,24.73,0,0,0,9.32-1.72,21.91,21.91,0,0,0,7.44-4.88,22.86,22.86,0,0,0,4.92-7.36,25.13,25.13,0,0,0,0-18.48,23,23,0,0,0-4.92-7.36,22.21,22.21,0,0,0-7.44-4.88,24.92,24.92,0,0,0-9.32-1.72,25.21,25.21,0,0,0-9.36,1.72,22.33,22.33,0,0,0-12.48,12.24,25,25,0,0,0,0,18.44,22.23,22.23,0,0,0,12.48,12.28A25,25,0,0,0,391,570.93Z" transform="translate(-9.12)"/><path class="cls-4" d="M433.6,575.73v-56h5.92v56Zm5.12-13.92-.24-7.2,33.92-34.88h6.8l-24.72,25.92-3.36,3.6Zm35.12,13.92-24.16-27.84,4-4.32,27.2,32.16Z" transform="translate(-9.12)"/><path class="cls-4" d="M69,671.73v-56h23a31.39,31.39,0,0,1,12.76,2.36,18.26,18.26,0,0,1,8.2,6.84,19.4,19.4,0,0,1,2.88,10.72,18.13,18.13,0,0,1-11.08,17.48,30.39,30.39,0,0,1-12.76,2.44H74.88l4.56-4.8v21Zm10.4-19.84-4.56-5.12H91.6q6.89,0,10.36-2.92a11.4,11.4,0,0,0,0-16.4q-3.48-2.93-10.36-2.92H74.88l4.56-5.12Z" transform="translate(-9.12)"/><path class="cls-4" d="M136.72,662.93h31.6v8.8h-42v-56H167.2v8.8H136.72Zm-.8-23.92h27.84v8.56H135.92Z" transform="translate(-9.12)"/><path class="cls-4" d="M179.92,671.73v-56h8.56L213,656.61h-4.48l24.08-40.88h8.56l.16,56h-10V631.17h2L213,665.41h-4.72l-20.8-34.24h2.4v40.56Z" transform="translate(-9.12)"/><path class="cls-4" d="M280.32,672.53q-11.44,0-18-6.48t-6.52-18.8V615.73h10.4v31.2q0,8.64,3.72,12.56t10.52,3.92q6.79,0,10.48-3.92t3.68-12.56v-31.2h10.24v31.52q0,12.32-6.52,18.8T280.32,672.53Z" transform="translate(-9.12)"/><path class="cls-4" d="M319.44,671.73v-56h10.4v47.2h29.28v8.8Z" transform="translate(-9.12)"/><path class="cls-4" d="M359.52,671.73l25.2-56H395l25.28,56h-11l-21.6-50.48h4.16l-21.68,50.48Zm11.6-13,2.88-8.16h30.16l2.8,8.16Z" transform="translate(-9.12)"/></g></g></svg>