<svg xmlns="http://www.w3.org/2000/svg" xmlns:xlink="http://www.w3.org/1999/xlink" viewBox="0 0 937.6 900.2"><defs><style>.cls-1{fill:gold;}.cls-2{fill:url(#linear-gradient);}.cls-3{fill:url(#linear-gradient-3);}</style><linearGradient id="linear-gradient" x1="468.8" y1="-10.66" x2="468.8" y2="1545.61" gradientUnits="userSpaceOnUse"><stop offset="0" stop-color="#ffe500"/><stop offset="1" stop-color="#ffc300"/></linearGradient><linearGradient id="linear-gradient-3" x1="502.48" y1="336.16" x2="502.48" y2="728.74" gradientUnits="userSpaceOnUse"><stop offset="0" stop-color="#00c702"/><stop offset="1" stop-color="#009c0b"/></linearGradient></defs><g id="Layer_2" data-name="Layer 2"><g id="Layer_1-2" data-name="Layer 1"><path class="cls-1" d="M933.13,417.65c6.88-10.23,5.67-15.48-2.61-23.84q-125-126.24-249.18-253.28c-37.41-38.09-74.62-76.37-112.25-114.25C531.9-11.16,500.62-8.49,471,33.64,435.24,84.44,402.06,136.91,368.6,189.2Q348.22,221,327.87,252.93C443.63,162,587.64,165.75,691.34,239.77,742.12,276,778.57,323.68,798.66,383c30.06,88.71,19,173.43-28.08,254,31.7,7.48,49.77,28,50.1,55.51.32,26.3-16.88,48.33-43.09,55.19-27.59,7.21-49.7-5.59-69-40.47-5.11,3.78-10.09,7.58-15.18,11.21-71,50.63-149.77,68.33-234.62,49.92C265.53,726.41,169.16,516,259.69,340.3,301,260.22,337.86,177.9,377,96.73c3.07-6.37,2.24-10.27-2.63-15.12C361,68.26,348.47,54,334.93,40.77,304.38,11,279.85,11.51,250,42.1a75.59,75.59,0,0,0-9,11.36Q123,232.73,5,411.94c-6.72,10.14-7.07,16,1.7,25.47,99.09,106.67,197.38,214.08,296.49,320.74,31,33.38,59.4,69.44,94.48,98.84,68.95,57.79,190,64.75,258.71-23.31,16.74-21.46,31.59-44.18,45.87-67.27,5.29-8.56,9.22-9.56,17.92-4,39,25.07,88.64,14.43,113.86-23.63,24.77-37.39,15.65-87.49-22.07-113.19-10.35-7.06-9.14-11.17-3.31-19.93C850.3,543.12,891.21,480.05,933.13,417.65Z"/><path class="cls-1" d="M760,415.7c-27-88.56-86.48-145.54-174-173-105-32.9-213.74,2.43-273,66.67C475.06,190.51,694.4,256.51,760,415.7Z"/><path class="cls-2" d="M933.13,417.65c6.88-10.23,5.67-15.48-2.61-23.84q-125-126.24-249.18-253.28c-37.41-38.09-74.62-76.37-112.25-114.25C531.9-11.16,500.62-8.49,471,33.64,435.24,84.44,402.06,136.91,368.6,189.2Q348.22,221,327.87,252.93C443.63,162,587.64,165.75,691.34,239.77,742.12,276,778.57,323.68,798.66,383c30.06,88.71,19,173.43-28.08,254,31.7,7.48,49.77,28,50.1,55.51.32,26.3-16.88,48.33-43.09,55.19-27.59,7.21-49.7-5.59-69-40.47-5.11,3.78-10.09,7.58-15.18,11.21-71,50.63-149.77,68.33-234.62,49.92C265.53,726.41,169.16,516,259.69,340.3,301,260.22,337.86,177.9,377,96.73c3.07-6.37,2.24-10.27-2.63-15.12C361,68.26,348.47,54,334.93,40.77,304.38,11,279.85,11.51,250,42.1a75.59,75.59,0,0,0-9,11.36Q123,232.73,5,411.94c-6.72,10.14-7.07,16,1.7,25.47,99.09,106.67,197.38,214.08,296.49,320.74,31,33.38,59.4,69.44,94.48,98.84,68.95,57.79,190,64.75,258.71-23.31,16.74-21.46,31.59-44.18,45.87-67.27,5.29-8.56,9.22-9.56,17.92-4,39,25.07,88.64,14.43,113.86-23.63,24.77-37.39,15.65-87.49-22.07-113.19-10.35-7.06-9.14-11.17-3.31-19.93C850.3,543.12,891.21,480.05,933.13,417.65Z"/><path class="cls-2" d="M760,415.7c-27-88.56-86.48-145.54-174-173-105-32.9-213.74,2.43-273,66.67C475.06,190.51,694.4,256.51,760,415.7Z"/><path class="cls-1" d="M589.09,620.91c17.92-.62,35.88-.53,53.8,0,8.47.24,12-1.91,12-11.2q-.48-115.62,0-231.25c0-9.56-3.84-11.23-12.12-11-17.44.49-34.93.79-52.34-.08-10.85-.54-12.71,3.89-12.59,13.48.47,37.81.2,75.63.19,113.45,0,38.29.23,76.6-.17,114.89C577.7,617.83,579.92,621.24,589.09,620.91Z"/><path class="cls-1" d="M528.15,412c-17.43.53-34.9.57-52.33,0-9.44-.32-12.52,2.71-12.34,12.39.6,31,.23,62,.23,93h.05c0,30.54.24,61.07-.15,91.6-.11,8.37,1.56,12.24,11.08,11.87,17.9-.71,35.87-.62,53.77.08,9.44.37,12.65-2.58,12.6-12.18q-.49-92.31,0-184.63C541.14,414.25,537.28,411.69,528.15,412Z"/><path class="cls-1" d="M361.35,620.87c17.42-.41,34.89-.68,52.29.09,9.91.43,13.57-2.11,13.16-12.65-.82-21.28-.24-42.6-.24-63.91,0-21.79-.37-43.59.17-65.37.26-10.17-3.45-13.64-13.5-13.28-17.41.62-34.87.44-52.29.07-8.19-.17-10.84,2.93-10.79,11.07q.45,66.83,0,133.65C350,619.29,353.63,621.06,361.35,620.87Z"/><path class="cls-3" d="M589.09,620.91c17.92-.62,35.88-.53,53.8,0,8.47.24,12-1.91,12-11.2q-.48-115.62,0-231.25c0-9.56-3.84-11.23-12.12-11-17.44.49-34.93.79-52.34-.08-10.85-.54-12.71,3.89-12.59,13.48.47,37.81.2,75.63.19,113.45,0,38.29.23,76.6-.17,114.89C577.7,617.83,579.92,621.24,589.09,620.91Z"/><path class="cls-3" d="M528.15,412c-17.43.53-34.9.57-52.33,0-9.44-.32-12.52,2.71-12.34,12.39.6,31,.23,62,.23,93h.05c0,30.54.24,61.07-.15,91.6-.11,8.37,1.56,12.24,11.08,11.87,17.9-.71,35.87-.62,53.77.08,9.44.37,12.65-2.58,12.6-12.18q-.49-92.31,0-184.63C541.14,414.25,537.28,411.69,528.15,412Z"/><path class="cls-3" d="M361.35,620.87c17.42-.41,34.89-.68,52.29.09,9.91.43,13.57-2.11,13.16-12.65-.82-21.28-.24-42.6-.24-63.91,0-21.79-.37-43.59.17-65.37.26-10.17-3.45-13.64-13.5-13.28-17.41.62-34.87.44-52.29.07-8.19-.17-10.84,2.93-10.79,11.07q.45,66.83,0,133.65C350,619.29,353.63,621.06,361.35,620.87Z"/></g></g></svg>